<?xml version="1.0" encoding="utf-8" standalone="no"?>
<!DOCTYPE svg PUBLIC "-//W3C//DTD SVG 1.1//EN"
  "http://www.w3.org/Graphics/SVG/1.1/DTD/svg11.dtd">
<svg xmlns:xlink="http://www.w3.org/1999/xlink" width="460.8pt" height="345.6pt" viewBox="0 0 460.8 345.6" xmlns="http://www.w3.org/2000/svg" version="1.1">
 <metadata>
  <rdf:RDF xmlns:dc="http://purl.org/dc/elements/1.1/" xmlns:cc="http://creativecommons.org/ns#" xmlns:rdf="http://www.w3.org/1999/02/22-rdf-syntax-ns#">
   <cc:Work>
    <dc:type rdf:resource="http://purl.org/dc/dcmitype/StillImage"/>
    <dc:date>2022-05-02T16:28:28.902956</dc:date>
    <dc:format>image/svg+xml</dc:format>
    <dc:creator>
     <cc:Agent>
      <dc:title>Matplotlib v3.5.1, https://matplotlib.org/</dc:title>
     </cc:Agent>
    </dc:creator>
   </cc:Work>
  </rdf:RDF>
 </metadata>
 <defs>
  <style type="text/css">*{stroke-linejoin: round; stroke-linecap: butt}</style>
 </defs>
 <g id="figure_1">
  <g id="patch_1">
   <path d="M 0 345.6 
L 460.8 345.6 
L 460.8 0 
L 0 0 
z
" style="fill: #ffffff"/>
  </g>
  <g id="axes_1">
   <g id="patch_2">
    <path d="M 57.6 307.584 
L 414.72 307.584 
L 414.72 41.472 
L 57.6 41.472 
z
" style="fill: #ffffff"/>
   </g>
   <g id="patch_3">
    <path d="M 220.029074 248.040463 
Q 279.772148 180.682979 338.031466 114.998359 
" clip-path="url(#pa3cafbe546)" style="fill: none; stroke: #ff0000; stroke-width: 2; stroke-linecap: round"/>
    <path d="M 333.88099 116.663757 
L 338.031466 114.998359 
L 336.873499 119.317979 
L 333.88099 116.663757 
z
" clip-path="url(#pa3cafbe546)" style="fill: #ff0000; stroke: #ff0000; stroke-width: 2; stroke-linecap: round"/>
   </g>
   <g id="patch_4">
    <path d="M 180.141855 85.93761 
Q 196.353208 165.98506 212.120721 243.840935 
" clip-path="url(#pa3cafbe546)" style="fill: none; stroke: #ff0000; stroke-width: 2; stroke-linecap: round"/>
    <path d="M 213.286957 239.523541 
L 212.120721 243.840935 
L 209.366547 240.317509 
L 213.286957 239.523541 
z
" clip-path="url(#pa3cafbe546)" style="fill: #ff0000; stroke: #ff0000; stroke-width: 2; stroke-linecap: round"/>
   </g>
   <g id="patch_5">
    <path d="M 302.589141 65.400856 
Q 244.816417 71.007689 189.269304 76.398526 
" clip-path="url(#pa3cafbe546)" style="fill: none; stroke: #000000; stroke-width: 2; stroke-linecap: round"/>
    <path d="M 193.44379 78.00279 
L 189.269304 76.398526 
L 193.057406 74.021495 
L 193.44379 78.00279 
z
" clip-path="url(#pa3cafbe546)" style="stroke: #000000; stroke-width: 2; stroke-linecap: round"/>
   </g>
   <g id="patch_6">
    <path d="M 376.227342 191.55222 
Q 281.075429 136.664929 187.860438 82.894928 
" clip-path="url(#pa3cafbe546)" style="fill: none; stroke: #000000; stroke-width: 2; stroke-linecap: round"/>
    <path d="M 190.325972 86.626033 
L 187.860438 82.894928 
L 192.324642 83.161164 
L 190.325972 86.626033 
z
" clip-path="url(#pa3cafbe546)" style="stroke: #000000; stroke-width: 2; stroke-linecap: round"/>
   </g>
   <g id="patch_7">
    <path d="M 96.875821 226.867559 
Q 187.50338 254.420038 275.991555 281.322105 
" clip-path="url(#pa3cafbe546)" style="fill: none; stroke: #000000; stroke-width: 2; stroke-linecap: round"/>
    <path d="M 272.746256 278.245088 
L 275.991555 281.322105 
L 271.582762 282.072134 
L 272.746256 278.245088 
z
" clip-path="url(#pa3cafbe546)" style="stroke: #000000; stroke-width: 2; stroke-linecap: round"/>
   </g>
   <g id="patch_8">
    <path d="M 336.601262 106.722907 
Q 222.043428 105.080091 109.721432 103.469339 
" clip-path="url(#pa3cafbe546)" style="fill: none; stroke: #000000; stroke-width: 2; stroke-linecap: round"/>
    <path d="M 113.692343 105.52649 
L 109.721432 103.469339 
L 113.749699 101.526901 
L 113.692343 105.52649 
z
" clip-path="url(#pa3cafbe546)" style="stroke: #000000; stroke-width: 2; stroke-linecap: round"/>
   </g>
   <g id="patch_9">
    <path d="M 336.730472 105.344015 
Q 261.840311 92.148783 189.152297 79.341557 
" clip-path="url(#pa3cafbe546)" style="fill: none; stroke: #ff0000; stroke-width: 2; stroke-linecap: round"/>
    <path d="M 192.744574 82.005304 
L 189.152297 79.341557 
L 193.43866 78.065984 
L 192.744574 82.005304 
z
" clip-path="url(#pa3cafbe546)" style="fill: #ff0000; stroke: #ff0000; stroke-width: 2; stroke-linecap: round"/>
   </g>
   <g id="matplotlib.axis_1">
    <g id="xtick_1"/>
    <g id="xtick_2"/>
    <g id="xtick_3"/>
    <g id="xtick_4"/>
    <g id="xtick_5"/>
   </g>
   <g id="matplotlib.axis_2">
    <g id="ytick_1"/>
    <g id="ytick_2"/>
    <g id="ytick_3"/>
    <g id="ytick_4"/>
    <g id="ytick_5"/>
    <g id="ytick_6"/>
    <g id="ytick_7"/>
    <g id="ytick_8"/>
    <g id="ytick_9"/>
   </g>
   <g id="PathCollection_1">
    <defs>
     <path id="m9067546afa" d="M 0 19.364917 
C 5.135636 19.364917 10.061621 17.324507 13.693064 13.693064 
C 17.324507 10.061621 19.364917 5.135636 19.364917 0 
C 19.364917 -5.135636 17.324507 -10.061621 13.693064 -13.693064 
C 10.061621 -17.324507 5.135636 -19.364917 0 -19.364917 
C -5.135636 -19.364917 -10.061621 -17.324507 -13.693064 -13.693064 
C -17.324507 -10.061621 -19.364917 -5.135636 -19.364917 0 
C -19.364917 5.135636 -17.324507 10.061621 -13.693064 13.693064 
C -10.061621 17.324507 -5.135636 19.364917 0 19.364917 
z
" style="stroke: #ffffff; stroke-opacity: 0"/>
    </defs>
    <g clip-path="url(#pa3cafbe546)">
     <use xlink:href="#m9067546afa" x="214.283195" y="254.51867" style="fill: #ffffff; fill-opacity: 0; stroke: #ffffff; stroke-opacity: 0"/>
     <use xlink:href="#m9067546afa" x="178.42316" y="77.451143" style="fill: #ffffff; fill-opacity: 0; stroke: #ffffff; stroke-opacity: 0"/>
     <use xlink:href="#m9067546afa" x="311.208345" y="64.564364" style="fill: #ffffff; fill-opacity: 0; stroke: #ffffff; stroke-opacity: 0"/>
     <use xlink:href="#m9067546afa" x="383.730248" y="195.880186" style="fill: #ffffff; fill-opacity: 0; stroke: #ffffff; stroke-opacity: 0"/>
     <use xlink:href="#m9067546afa" x="88.589752" y="224.348438" style="fill: #ffffff; fill-opacity: 0; stroke: #ffffff; stroke-opacity: 0"/>
     <use xlink:href="#m9067546afa" x="98.825139" y="103.313081" style="fill: #ffffff; fill-opacity: 0; stroke: #ffffff; stroke-opacity: 0"/>
     <use xlink:href="#m9067546afa" x="345.261272" y="106.847095" style="fill: #ffffff; fill-opacity: 0; stroke: #ffffff; stroke-opacity: 0"/>
     <use xlink:href="#m9067546afa" x="286.417003" y="284.491636" style="fill: #ffffff; fill-opacity: 0; stroke: #ffffff; stroke-opacity: 0"/>
    </g>
   </g>
   <g id="PathCollection_2">
    <defs>
     <path id="mab3aac2b02" d="M 0 9.354143 
C 2.480748 9.354143 4.860225 8.368532 6.614378 6.614378 
C 8.368532 4.860225 9.354143 2.480748 9.354143 0 
C 9.354143 -2.480748 8.368532 -4.860225 6.614378 -6.614378 
C 4.860225 -8.368532 2.480748 -9.354143 0 -9.354143 
C -2.480748 -9.354143 -4.860225 -8.368532 -6.614378 -6.614378 
C -8.368532 -4.860225 -9.354143 -2.480748 -9.354143 0 
C -9.354143 2.480748 -8.368532 4.860225 -6.614378 6.614378 
C -4.860225 8.368532 -2.480748 9.354143 0 9.354143 
z
" style="stroke: #ffffff"/>
    </defs>
    <g clip-path="url(#pa3cafbe546)">
     <use xlink:href="#mab3aac2b02" x="214.283195" y="254.51867" style="fill: #ffffff; stroke: #ffffff"/>
     <use xlink:href="#mab3aac2b02" x="178.42316" y="77.451143" style="fill: #ffffff; stroke: #ffffff"/>
     <use xlink:href="#mab3aac2b02" x="311.208345" y="64.564364" style="fill: #ffffff; stroke: #ffffff"/>
     <use xlink:href="#mab3aac2b02" x="383.730248" y="195.880186" style="fill: #ffffff; stroke: #ffffff"/>
     <use xlink:href="#mab3aac2b02" x="88.589752" y="224.348438" style="fill: #ffffff; stroke: #ffffff"/>
     <use xlink:href="#mab3aac2b02" x="98.825139" y="103.313081" style="fill: #ffffff; stroke: #ffffff"/>
     <use xlink:href="#mab3aac2b02" x="345.261272" y="106.847095" style="fill: #ffffff; stroke: #ffffff"/>
     <use xlink:href="#mab3aac2b02" x="286.417003" y="284.491636" style="fill: #ffffff; stroke: #ffffff"/>
    </g>
   </g>
   <g id="patch_10">
    <path d="M 57.6 307.584 
L 57.6 41.472 
" style="fill: none; stroke: #000000; stroke-width: 0.8; stroke-linejoin: miter; stroke-linecap: square"/>
   </g>
   <g id="patch_11">
    <path d="M 414.72 307.584 
L 414.72 41.472 
" style="fill: none; stroke: #000000; stroke-width: 0.8; stroke-linejoin: miter; stroke-linecap: square"/>
   </g>
   <g id="patch_12">
    <path d="M 57.6 307.584 
L 414.72 307.584 
" style="fill: none; stroke: #000000; stroke-width: 0.8; stroke-linejoin: miter; stroke-linecap: square"/>
   </g>
   <g id="patch_13">
    <path d="M 57.6 41.472 
L 414.72 41.472 
" style="fill: none; stroke: #000000; stroke-width: 0.8; stroke-linejoin: miter; stroke-linecap: square"/>
   </g>
   <g id="text_1">
    <g id="patch_14">
     <path d="M 168.248195 262.725545 
L 260.318195 262.725545 
Q 262.718195 262.725545 262.718195 260.325545 
L 262.718195 248.711795 
Q 262.718195 246.311795 260.318195 246.311795 
L 168.248195 246.311795 
Q 165.848195 246.311795 165.848195 248.711795 
L 165.848195 260.325545 
Q 165.848195 262.725545 168.248195 262.725545 
z
" clip-path="url(#pa3cafbe546)" style="fill: #f0e68c; opacity: 0.5; stroke: #000000; stroke-linejoin: miter"/>
    </g>
    <g clip-path="url(#pa3cafbe546)">
     <!-- actions/voltage -->
     <g transform="translate(168.248195 257.82992)scale(0.12 -0.12)">
      <defs>
       <path id="DejaVuSans-61" d="M 2194 1759 
Q 1497 1759 1228 1600 
Q 959 1441 959 1056 
Q 959 750 1161 570 
Q 1363 391 1709 391 
Q 2188 391 2477 730 
Q 2766 1069 2766 1631 
L 2766 1759 
L 2194 1759 
z
M 3341 1997 
L 3341 0 
L 2766 0 
L 2766 531 
Q 2569 213 2275 61 
Q 1981 -91 1556 -91 
Q 1019 -91 701 211 
Q 384 513 384 1019 
Q 384 1609 779 1909 
Q 1175 2209 1959 2209 
L 2766 2209 
L 2766 2266 
Q 2766 2663 2505 2880 
Q 2244 3097 1772 3097 
Q 1472 3097 1187 3025 
Q 903 2953 641 2809 
L 641 3341 
Q 956 3463 1253 3523 
Q 1550 3584 1831 3584 
Q 2591 3584 2966 3190 
Q 3341 2797 3341 1997 
z
" transform="scale(0.015625)"/>
       <path id="DejaVuSans-63" d="M 3122 3366 
L 3122 2828 
Q 2878 2963 2633 3030 
Q 2388 3097 2138 3097 
Q 1578 3097 1268 2742 
Q 959 2388 959 1747 
Q 959 1106 1268 751 
Q 1578 397 2138 397 
Q 2388 397 2633 464 
Q 2878 531 3122 666 
L 3122 134 
Q 2881 22 2623 -34 
Q 2366 -91 2075 -91 
Q 1284 -91 818 406 
Q 353 903 353 1747 
Q 353 2603 823 3093 
Q 1294 3584 2113 3584 
Q 2378 3584 2631 3529 
Q 2884 3475 3122 3366 
z
" transform="scale(0.015625)"/>
       <path id="DejaVuSans-74" d="M 1172 4494 
L 1172 3500 
L 2356 3500 
L 2356 3053 
L 1172 3053 
L 1172 1153 
Q 1172 725 1289 603 
Q 1406 481 1766 481 
L 2356 481 
L 2356 0 
L 1766 0 
Q 1100 0 847 248 
Q 594 497 594 1153 
L 594 3053 
L 172 3053 
L 172 3500 
L 594 3500 
L 594 4494 
L 1172 4494 
z
" transform="scale(0.015625)"/>
       <path id="DejaVuSans-69" d="M 603 3500 
L 1178 3500 
L 1178 0 
L 603 0 
L 603 3500 
z
M 603 4863 
L 1178 4863 
L 1178 4134 
L 603 4134 
L 603 4863 
z
" transform="scale(0.015625)"/>
       <path id="DejaVuSans-6f" d="M 1959 3097 
Q 1497 3097 1228 2736 
Q 959 2375 959 1747 
Q 959 1119 1226 758 
Q 1494 397 1959 397 
Q 2419 397 2687 759 
Q 2956 1122 2956 1747 
Q 2956 2369 2687 2733 
Q 2419 3097 1959 3097 
z
M 1959 3584 
Q 2709 3584 3137 3096 
Q 3566 2609 3566 1747 
Q 3566 888 3137 398 
Q 2709 -91 1959 -91 
Q 1206 -91 779 398 
Q 353 888 353 1747 
Q 353 2609 779 3096 
Q 1206 3584 1959 3584 
z
" transform="scale(0.015625)"/>
       <path id="DejaVuSans-6e" d="M 3513 2113 
L 3513 0 
L 2938 0 
L 2938 2094 
Q 2938 2591 2744 2837 
Q 2550 3084 2163 3084 
Q 1697 3084 1428 2787 
Q 1159 2491 1159 1978 
L 1159 0 
L 581 0 
L 581 3500 
L 1159 3500 
L 1159 2956 
Q 1366 3272 1645 3428 
Q 1925 3584 2291 3584 
Q 2894 3584 3203 3211 
Q 3513 2838 3513 2113 
z
" transform="scale(0.015625)"/>
       <path id="DejaVuSans-73" d="M 2834 3397 
L 2834 2853 
Q 2591 2978 2328 3040 
Q 2066 3103 1784 3103 
Q 1356 3103 1142 2972 
Q 928 2841 928 2578 
Q 928 2378 1081 2264 
Q 1234 2150 1697 2047 
L 1894 2003 
Q 2506 1872 2764 1633 
Q 3022 1394 3022 966 
Q 3022 478 2636 193 
Q 2250 -91 1575 -91 
Q 1294 -91 989 -36 
Q 684 19 347 128 
L 347 722 
Q 666 556 975 473 
Q 1284 391 1588 391 
Q 1994 391 2212 530 
Q 2431 669 2431 922 
Q 2431 1156 2273 1281 
Q 2116 1406 1581 1522 
L 1381 1569 
Q 847 1681 609 1914 
Q 372 2147 372 2553 
Q 372 3047 722 3315 
Q 1072 3584 1716 3584 
Q 2034 3584 2315 3537 
Q 2597 3491 2834 3397 
z
" transform="scale(0.015625)"/>
       <path id="DejaVuSans-2f" d="M 1625 4666 
L 2156 4666 
L 531 -594 
L 0 -594 
L 1625 4666 
z
" transform="scale(0.015625)"/>
       <path id="DejaVuSans-76" d="M 191 3500 
L 800 3500 
L 1894 563 
L 2988 3500 
L 3597 3500 
L 2284 0 
L 1503 0 
L 191 3500 
z
" transform="scale(0.015625)"/>
       <path id="DejaVuSans-6c" d="M 603 4863 
L 1178 4863 
L 1178 0 
L 603 0 
L 603 4863 
z
" transform="scale(0.015625)"/>
       <path id="DejaVuSans-67" d="M 2906 1791 
Q 2906 2416 2648 2759 
Q 2391 3103 1925 3103 
Q 1463 3103 1205 2759 
Q 947 2416 947 1791 
Q 947 1169 1205 825 
Q 1463 481 1925 481 
Q 2391 481 2648 825 
Q 2906 1169 2906 1791 
z
M 3481 434 
Q 3481 -459 3084 -895 
Q 2688 -1331 1869 -1331 
Q 1566 -1331 1297 -1286 
Q 1028 -1241 775 -1147 
L 775 -588 
Q 1028 -725 1275 -790 
Q 1522 -856 1778 -856 
Q 2344 -856 2625 -561 
Q 2906 -266 2906 331 
L 2906 616 
Q 2728 306 2450 153 
Q 2172 0 1784 0 
Q 1141 0 747 490 
Q 353 981 353 1791 
Q 353 2603 747 3093 
Q 1141 3584 1784 3584 
Q 2172 3584 2450 3431 
Q 2728 3278 2906 2969 
L 2906 3500 
L 3481 3500 
L 3481 434 
z
" transform="scale(0.015625)"/>
       <path id="DejaVuSans-65" d="M 3597 1894 
L 3597 1613 
L 953 1613 
Q 991 1019 1311 708 
Q 1631 397 2203 397 
Q 2534 397 2845 478 
Q 3156 559 3463 722 
L 3463 178 
Q 3153 47 2828 -22 
Q 2503 -91 2169 -91 
Q 1331 -91 842 396 
Q 353 884 353 1716 
Q 353 2575 817 3079 
Q 1281 3584 2069 3584 
Q 2775 3584 3186 3129 
Q 3597 2675 3597 1894 
z
M 3022 2063 
Q 3016 2534 2758 2815 
Q 2500 3097 2075 3097 
Q 1594 3097 1305 2825 
Q 1016 2553 972 2059 
L 3022 2063 
z
" transform="scale(0.015625)"/>
      </defs>
      <use xlink:href="#DejaVuSans-61"/>
      <use xlink:href="#DejaVuSans-63" x="61.279297"/>
      <use xlink:href="#DejaVuSans-74" x="116.259766"/>
      <use xlink:href="#DejaVuSans-69" x="155.46875"/>
      <use xlink:href="#DejaVuSans-6f" x="183.251953"/>
      <use xlink:href="#DejaVuSans-6e" x="244.433594"/>
      <use xlink:href="#DejaVuSans-73" x="307.8125"/>
      <use xlink:href="#DejaVuSans-2f" x="359.912109"/>
      <use xlink:href="#DejaVuSans-76" x="393.603516"/>
      <use xlink:href="#DejaVuSans-6f" x="452.783203"/>
      <use xlink:href="#DejaVuSans-6c" x="513.964844"/>
      <use xlink:href="#DejaVuSans-74" x="541.748047"/>
      <use xlink:href="#DejaVuSans-61" x="580.957031"/>
      <use xlink:href="#DejaVuSans-67" x="642.236328"/>
      <use xlink:href="#DejaVuSans-65" x="705.712891"/>
     </g>
    </g>
   </g>
   <g id="text_2">
    <g id="patch_15">
     <path d="M 139.812222 85.658018 
L 217.034097 85.658018 
Q 219.434097 85.658018 219.434097 83.258018 
L 219.434097 71.644268 
Q 219.434097 69.244268 217.034097 69.244268 
L 139.812222 69.244268 
Q 137.412222 69.244268 137.412222 71.644268 
L 137.412222 83.258018 
Q 137.412222 85.658018 139.812222 85.658018 
z
" clip-path="url(#pa3cafbe546)" style="fill: #f0e68c; opacity: 0.5; stroke: #000000; stroke-linejoin: miter"/>
    </g>
    <g clip-path="url(#pa3cafbe546)">
     <!-- observations -->
     <g transform="translate(139.812222 80.762393)scale(0.12 -0.12)">
      <defs>
       <path id="DejaVuSans-62" d="M 3116 1747 
Q 3116 2381 2855 2742 
Q 2594 3103 2138 3103 
Q 1681 3103 1420 2742 
Q 1159 2381 1159 1747 
Q 1159 1113 1420 752 
Q 1681 391 2138 391 
Q 2594 391 2855 752 
Q 3116 1113 3116 1747 
z
M 1159 2969 
Q 1341 3281 1617 3432 
Q 1894 3584 2278 3584 
Q 2916 3584 3314 3078 
Q 3713 2572 3713 1747 
Q 3713 922 3314 415 
Q 2916 -91 2278 -91 
Q 1894 -91 1617 61 
Q 1341 213 1159 525 
L 1159 0 
L 581 0 
L 581 4863 
L 1159 4863 
L 1159 2969 
z
" transform="scale(0.015625)"/>
       <path id="DejaVuSans-72" d="M 2631 2963 
Q 2534 3019 2420 3045 
Q 2306 3072 2169 3072 
Q 1681 3072 1420 2755 
Q 1159 2438 1159 1844 
L 1159 0 
L 581 0 
L 581 3500 
L 1159 3500 
L 1159 2956 
Q 1341 3275 1631 3429 
Q 1922 3584 2338 3584 
Q 2397 3584 2469 3576 
Q 2541 3569 2628 3553 
L 2631 2963 
z
" transform="scale(0.015625)"/>
      </defs>
      <use xlink:href="#DejaVuSans-6f"/>
      <use xlink:href="#DejaVuSans-62" x="61.181641"/>
      <use xlink:href="#DejaVuSans-73" x="124.658203"/>
      <use xlink:href="#DejaVuSans-65" x="176.757812"/>
      <use xlink:href="#DejaVuSans-72" x="238.28125"/>
      <use xlink:href="#DejaVuSans-76" x="279.394531"/>
      <use xlink:href="#DejaVuSans-61" x="338.574219"/>
      <use xlink:href="#DejaVuSans-74" x="399.853516"/>
      <use xlink:href="#DejaVuSans-69" x="439.0625"/>
      <use xlink:href="#DejaVuSans-6f" x="466.845703"/>
      <use xlink:href="#DejaVuSans-6e" x="528.027344"/>
      <use xlink:href="#DejaVuSans-73" x="591.40625"/>
     </g>
    </g>
   </g>
   <g id="text_3">
    <g id="patch_16">
     <path d="M 263.08272 72.771239 
L 359.33397 72.771239 
Q 361.73397 72.771239 361.73397 70.371239 
L 361.73397 58.757489 
Q 361.73397 56.357489 359.33397 56.357489 
L 263.08272 56.357489 
Q 260.68272 56.357489 260.68272 58.757489 
L 260.68272 70.371239 
Q 260.68272 72.771239 263.08272 72.771239 
z
" clip-path="url(#pa3cafbe546)" style="fill: #87ceeb; opacity: 0.5; stroke: #000000; stroke-linejoin: miter"/>
    </g>
    <g clip-path="url(#pa3cafbe546)">
     <!-- pendulum/theta -->
     <g transform="translate(263.08272 67.875614)scale(0.12 -0.12)">
      <defs>
       <path id="DejaVuSans-70" d="M 1159 525 
L 1159 -1331 
L 581 -1331 
L 581 3500 
L 1159 3500 
L 1159 2969 
Q 1341 3281 1617 3432 
Q 1894 3584 2278 3584 
Q 2916 3584 3314 3078 
Q 3713 2572 3713 1747 
Q 3713 922 3314 415 
Q 2916 -91 2278 -91 
Q 1894 -91 1617 61 
Q 1341 213 1159 525 
z
M 3116 1747 
Q 3116 2381 2855 2742 
Q 2594 3103 2138 3103 
Q 1681 3103 1420 2742 
Q 1159 2381 1159 1747 
Q 1159 1113 1420 752 
Q 1681 391 2138 391 
Q 2594 391 2855 752 
Q 3116 1113 3116 1747 
z
" transform="scale(0.015625)"/>
       <path id="DejaVuSans-64" d="M 2906 2969 
L 2906 4863 
L 3481 4863 
L 3481 0 
L 2906 0 
L 2906 525 
Q 2725 213 2448 61 
Q 2172 -91 1784 -91 
Q 1150 -91 751 415 
Q 353 922 353 1747 
Q 353 2572 751 3078 
Q 1150 3584 1784 3584 
Q 2172 3584 2448 3432 
Q 2725 3281 2906 2969 
z
M 947 1747 
Q 947 1113 1208 752 
Q 1469 391 1925 391 
Q 2381 391 2643 752 
Q 2906 1113 2906 1747 
Q 2906 2381 2643 2742 
Q 2381 3103 1925 3103 
Q 1469 3103 1208 2742 
Q 947 2381 947 1747 
z
" transform="scale(0.015625)"/>
       <path id="DejaVuSans-75" d="M 544 1381 
L 544 3500 
L 1119 3500 
L 1119 1403 
Q 1119 906 1312 657 
Q 1506 409 1894 409 
Q 2359 409 2629 706 
Q 2900 1003 2900 1516 
L 2900 3500 
L 3475 3500 
L 3475 0 
L 2900 0 
L 2900 538 
Q 2691 219 2414 64 
Q 2138 -91 1772 -91 
Q 1169 -91 856 284 
Q 544 659 544 1381 
z
M 1991 3584 
L 1991 3584 
z
" transform="scale(0.015625)"/>
       <path id="DejaVuSans-6d" d="M 3328 2828 
Q 3544 3216 3844 3400 
Q 4144 3584 4550 3584 
Q 5097 3584 5394 3201 
Q 5691 2819 5691 2113 
L 5691 0 
L 5113 0 
L 5113 2094 
Q 5113 2597 4934 2840 
Q 4756 3084 4391 3084 
Q 3944 3084 3684 2787 
Q 3425 2491 3425 1978 
L 3425 0 
L 2847 0 
L 2847 2094 
Q 2847 2600 2669 2842 
Q 2491 3084 2119 3084 
Q 1678 3084 1418 2786 
Q 1159 2488 1159 1978 
L 1159 0 
L 581 0 
L 581 3500 
L 1159 3500 
L 1159 2956 
Q 1356 3278 1631 3431 
Q 1906 3584 2284 3584 
Q 2666 3584 2933 3390 
Q 3200 3197 3328 2828 
z
" transform="scale(0.015625)"/>
       <path id="DejaVuSans-68" d="M 3513 2113 
L 3513 0 
L 2938 0 
L 2938 2094 
Q 2938 2591 2744 2837 
Q 2550 3084 2163 3084 
Q 1697 3084 1428 2787 
Q 1159 2491 1159 1978 
L 1159 0 
L 581 0 
L 581 4863 
L 1159 4863 
L 1159 2956 
Q 1366 3272 1645 3428 
Q 1925 3584 2291 3584 
Q 2894 3584 3203 3211 
Q 3513 2838 3513 2113 
z
" transform="scale(0.015625)"/>
      </defs>
      <use xlink:href="#DejaVuSans-70"/>
      <use xlink:href="#DejaVuSans-65" x="63.476562"/>
      <use xlink:href="#DejaVuSans-6e" x="125"/>
      <use xlink:href="#DejaVuSans-64" x="188.378906"/>
      <use xlink:href="#DejaVuSans-75" x="251.855469"/>
      <use xlink:href="#DejaVuSans-6c" x="315.234375"/>
      <use xlink:href="#DejaVuSans-75" x="343.017578"/>
      <use xlink:href="#DejaVuSans-6d" x="406.396484"/>
      <use xlink:href="#DejaVuSans-2f" x="503.808594"/>
      <use xlink:href="#DejaVuSans-74" x="537.5"/>
      <use xlink:href="#DejaVuSans-68" x="576.708984"/>
      <use xlink:href="#DejaVuSans-65" x="640.087891"/>
      <use xlink:href="#DejaVuSans-74" x="701.611328"/>
      <use xlink:href="#DejaVuSans-61" x="740.820312"/>
     </g>
    </g>
   </g>
   <g id="text_4">
    <g id="patch_17">
     <path d="M 331.79556 204.087061 
L 435.664935 204.087061 
Q 438.064935 204.087061 438.064935 201.687061 
L 438.064935 190.073311 
Q 438.064935 187.673311 435.664935 187.673311 
L 331.79556 187.673311 
Q 329.39556 187.673311 329.39556 190.073311 
L 329.39556 201.687061 
Q 329.39556 204.087061 331.79556 204.087061 
z
" clip-path="url(#pa3cafbe546)" style="fill: #87ceeb; opacity: 0.5; stroke: #000000; stroke-linejoin: miter"/>
    </g>
    <g clip-path="url(#pa3cafbe546)">
     <!-- pendulum/dtheta -->
     <g transform="translate(331.79556 199.191436)scale(0.12 -0.12)">
      <use xlink:href="#DejaVuSans-70"/>
      <use xlink:href="#DejaVuSans-65" x="63.476562"/>
      <use xlink:href="#DejaVuSans-6e" x="125"/>
      <use xlink:href="#DejaVuSans-64" x="188.378906"/>
      <use xlink:href="#DejaVuSans-75" x="251.855469"/>
      <use xlink:href="#DejaVuSans-6c" x="315.234375"/>
      <use xlink:href="#DejaVuSans-75" x="343.017578"/>
      <use xlink:href="#DejaVuSans-6d" x="406.396484"/>
      <use xlink:href="#DejaVuSans-2f" x="503.808594"/>
      <use xlink:href="#DejaVuSans-64" x="537.5"/>
      <use xlink:href="#DejaVuSans-74" x="600.976562"/>
      <use xlink:href="#DejaVuSans-68" x="640.185547"/>
      <use xlink:href="#DejaVuSans-65" x="703.564453"/>
      <use xlink:href="#DejaVuSans-74" x="765.087891"/>
      <use xlink:href="#DejaVuSans-61" x="804.296875"/>
     </g>
    </g>
   </g>
   <g id="text_5">
    <g id="patch_18">
     <path d="M 37.65069 232.555313 
L 139.528815 232.555313 
Q 141.928815 232.555313 141.928815 230.155313 
L 141.928815 218.541563 
Q 141.928815 216.141563 139.528815 216.141563 
L 37.65069 216.141563 
Q 35.25069 216.141563 35.25069 218.541563 
L 35.25069 230.155313 
Q 35.25069 232.555313 37.65069 232.555313 
z
" clip-path="url(#pa3cafbe546)" style="fill: #87ceeb; opacity: 0.5; stroke: #000000; stroke-linejoin: miter"/>
    </g>
    <g clip-path="url(#pa3cafbe546)">
     <!-- pendulum/image -->
     <g transform="translate(37.65069 227.659688)scale(0.12 -0.12)">
      <use xlink:href="#DejaVuSans-70"/>
      <use xlink:href="#DejaVuSans-65" x="63.476562"/>
      <use xlink:href="#DejaVuSans-6e" x="125"/>
      <use xlink:href="#DejaVuSans-64" x="188.378906"/>
      <use xlink:href="#DejaVuSans-75" x="251.855469"/>
      <use xlink:href="#DejaVuSans-6c" x="315.234375"/>
      <use xlink:href="#DejaVuSans-75" x="343.017578"/>
      <use xlink:href="#DejaVuSans-6d" x="406.396484"/>
      <use xlink:href="#DejaVuSans-2f" x="503.808594"/>
      <use xlink:href="#DejaVuSans-69" x="537.5"/>
      <use xlink:href="#DejaVuSans-6d" x="565.283203"/>
      <use xlink:href="#DejaVuSans-61" x="662.695312"/>
      <use xlink:href="#DejaVuSans-67" x="723.974609"/>
      <use xlink:href="#DejaVuSans-65" x="787.451172"/>
     </g>
    </g>
   </g>
   <g id="text_6">
    <g id="patch_19">
     <path d="M 62.772639 111.519956 
L 134.877639 111.519956 
Q 137.277639 111.519956 137.277639 109.119956 
L 137.277639 97.506206 
Q 137.277639 95.106206 134.877639 95.106206 
L 62.772639 95.106206 
Q 60.372639 95.106206 60.372639 97.506206 
L 60.372639 109.119956 
Q 60.372639 111.519956 62.772639 111.519956 
z
" clip-path="url(#pa3cafbe546)" style="fill: #90ee90; opacity: 0.5; stroke: #000000; stroke-linejoin: miter"/>
    </g>
    <g clip-path="url(#pa3cafbe546)">
     <!-- pendulum/u -->
     <g transform="translate(62.772639 106.624331)scale(0.12 -0.12)">
      <use xlink:href="#DejaVuSans-70"/>
      <use xlink:href="#DejaVuSans-65" x="63.476562"/>
      <use xlink:href="#DejaVuSans-6e" x="125"/>
      <use xlink:href="#DejaVuSans-64" x="188.378906"/>
      <use xlink:href="#DejaVuSans-75" x="251.855469"/>
      <use xlink:href="#DejaVuSans-6c" x="315.234375"/>
      <use xlink:href="#DejaVuSans-75" x="343.017578"/>
      <use xlink:href="#DejaVuSans-6d" x="406.396484"/>
      <use xlink:href="#DejaVuSans-2f" x="503.808594"/>
      <use xlink:href="#DejaVuSans-75" x="537.5"/>
     </g>
    </g>
   </g>
   <g id="text_7">
    <g id="patch_20">
     <path d="M 307.96096 115.05397 
L 382.561585 115.05397 
Q 384.961585 115.05397 384.961585 112.65397 
L 384.961585 101.04022 
Q 384.961585 98.64022 382.561585 98.64022 
L 307.96096 98.64022 
Q 305.56096 98.64022 305.56096 101.04022 
L 305.56096 112.65397 
Q 305.56096 115.05397 307.96096 115.05397 
z
" clip-path="url(#pa3cafbe546)" style="fill: #f0e68c; opacity: 0.5; stroke: #000000; stroke-linejoin: miter"/>
    </g>
    <g clip-path="url(#pa3cafbe546)">
     <!-- filter/filtered -->
     <g transform="translate(307.96096 110.158345)scale(0.12 -0.12)">
      <defs>
       <path id="DejaVuSans-66" d="M 2375 4863 
L 2375 4384 
L 1825 4384 
Q 1516 4384 1395 4259 
Q 1275 4134 1275 3809 
L 1275 3500 
L 2222 3500 
L 2222 3053 
L 1275 3053 
L 1275 0 
L 697 0 
L 697 3053 
L 147 3053 
L 147 3500 
L 697 3500 
L 697 3744 
Q 697 4328 969 4595 
Q 1241 4863 1831 4863 
L 2375 4863 
z
" transform="scale(0.015625)"/>
      </defs>
      <use xlink:href="#DejaVuSans-66"/>
      <use xlink:href="#DejaVuSans-69" x="35.205078"/>
      <use xlink:href="#DejaVuSans-6c" x="62.988281"/>
      <use xlink:href="#DejaVuSans-74" x="90.771484"/>
      <use xlink:href="#DejaVuSans-65" x="129.980469"/>
      <use xlink:href="#DejaVuSans-72" x="191.503906"/>
      <use xlink:href="#DejaVuSans-2f" x="232.617188"/>
      <use xlink:href="#DejaVuSans-66" x="266.308594"/>
      <use xlink:href="#DejaVuSans-69" x="301.513672"/>
      <use xlink:href="#DejaVuSans-6c" x="329.296875"/>
      <use xlink:href="#DejaVuSans-74" x="357.080078"/>
      <use xlink:href="#DejaVuSans-65" x="396.289062"/>
      <use xlink:href="#DejaVuSans-72" x="457.8125"/>
      <use xlink:href="#DejaVuSans-65" x="496.675781"/>
      <use xlink:href="#DejaVuSans-64" x="558.199219"/>
     </g>
    </g>
   </g>
   <g id="text_8">
    <g id="patch_21">
     <path d="M 266.623565 292.698511 
L 306.21044 292.698511 
Q 308.61044 292.698511 308.61044 290.298511 
L 308.61044 278.684761 
Q 308.61044 276.284761 306.21044 276.284761 
L 266.623565 276.284761 
Q 264.223565 276.284761 264.223565 278.684761 
L 264.223565 290.298511 
Q 264.223565 292.698511 266.623565 292.698511 
z
" clip-path="url(#pa3cafbe546)" style="fill: #90ee90; opacity: 0.5; stroke: #000000; stroke-linejoin: miter"/>
    </g>
    <g clip-path="url(#pa3cafbe546)">
     <!-- render -->
     <g transform="translate(266.623565 287.802886)scale(0.12 -0.12)">
      <use xlink:href="#DejaVuSans-72"/>
      <use xlink:href="#DejaVuSans-65" x="38.863281"/>
      <use xlink:href="#DejaVuSans-6e" x="100.386719"/>
      <use xlink:href="#DejaVuSans-64" x="163.765625"/>
      <use xlink:href="#DejaVuSans-65" x="227.242188"/>
      <use xlink:href="#DejaVuSans-72" x="288.765625"/>
     </g>
    </g>
   </g>
   <g id="text_9">
    <!-- Communication graph (episode) -->
    <g transform="translate(139.344375 35.472)scale(0.12 -0.12)">
     <defs>
      <path id="DejaVuSans-43" d="M 4122 4306 
L 4122 3641 
Q 3803 3938 3442 4084 
Q 3081 4231 2675 4231 
Q 1875 4231 1450 3742 
Q 1025 3253 1025 2328 
Q 1025 1406 1450 917 
Q 1875 428 2675 428 
Q 3081 428 3442 575 
Q 3803 722 4122 1019 
L 4122 359 
Q 3791 134 3420 21 
Q 3050 -91 2638 -91 
Q 1578 -91 968 557 
Q 359 1206 359 2328 
Q 359 3453 968 4101 
Q 1578 4750 2638 4750 
Q 3056 4750 3426 4639 
Q 3797 4528 4122 4306 
z
" transform="scale(0.015625)"/>
      <path id="DejaVuSans-20" transform="scale(0.015625)"/>
      <path id="DejaVuSans-28" d="M 1984 4856 
Q 1566 4138 1362 3434 
Q 1159 2731 1159 2009 
Q 1159 1288 1364 580 
Q 1569 -128 1984 -844 
L 1484 -844 
Q 1016 -109 783 600 
Q 550 1309 550 2009 
Q 550 2706 781 3412 
Q 1013 4119 1484 4856 
L 1984 4856 
z
" transform="scale(0.015625)"/>
      <path id="DejaVuSans-29" d="M 513 4856 
L 1013 4856 
Q 1481 4119 1714 3412 
Q 1947 2706 1947 2009 
Q 1947 1309 1714 600 
Q 1481 -109 1013 -844 
L 513 -844 
Q 928 -128 1133 580 
Q 1338 1288 1338 2009 
Q 1338 2731 1133 3434 
Q 928 4138 513 4856 
z
" transform="scale(0.015625)"/>
     </defs>
     <use xlink:href="#DejaVuSans-43"/>
     <use xlink:href="#DejaVuSans-6f" x="69.824219"/>
     <use xlink:href="#DejaVuSans-6d" x="131.005859"/>
     <use xlink:href="#DejaVuSans-6d" x="228.417969"/>
     <use xlink:href="#DejaVuSans-75" x="325.830078"/>
     <use xlink:href="#DejaVuSans-6e" x="389.208984"/>
     <use xlink:href="#DejaVuSans-69" x="452.587891"/>
     <use xlink:href="#DejaVuSans-63" x="480.371094"/>
     <use xlink:href="#DejaVuSans-61" x="535.351562"/>
     <use xlink:href="#DejaVuSans-74" x="596.630859"/>
     <use xlink:href="#DejaVuSans-69" x="635.839844"/>
     <use xlink:href="#DejaVuSans-6f" x="663.623047"/>
     <use xlink:href="#DejaVuSans-6e" x="724.804688"/>
     <use xlink:href="#DejaVuSans-20" x="788.183594"/>
     <use xlink:href="#DejaVuSans-67" x="819.970703"/>
     <use xlink:href="#DejaVuSans-72" x="883.447266"/>
     <use xlink:href="#DejaVuSans-61" x="924.560547"/>
     <use xlink:href="#DejaVuSans-70" x="985.839844"/>
     <use xlink:href="#DejaVuSans-68" x="1049.316406"/>
     <use xlink:href="#DejaVuSans-20" x="1112.695312"/>
     <use xlink:href="#DejaVuSans-28" x="1144.482422"/>
     <use xlink:href="#DejaVuSans-65" x="1183.496094"/>
     <use xlink:href="#DejaVuSans-70" x="1245.019531"/>
     <use xlink:href="#DejaVuSans-69" x="1308.496094"/>
     <use xlink:href="#DejaVuSans-73" x="1336.279297"/>
     <use xlink:href="#DejaVuSans-6f" x="1388.378906"/>
     <use xlink:href="#DejaVuSans-64" x="1449.560547"/>
     <use xlink:href="#DejaVuSans-65" x="1513.037109"/>
     <use xlink:href="#DejaVuSans-29" x="1574.560547"/>
    </g>
   </g>
   <g id="legend_1">
    <g id="patch_22">
     <path d="M 115.265625 352.7746 
L 361.054375 352.7746 
Q 362.654375 352.7746 362.654375 351.1746 
L 362.654375 328.4896 
Q 362.654375 326.8896 361.054375 326.8896 
L 115.265625 326.8896 
Q 113.665625 326.8896 113.665625 328.4896 
L 113.665625 351.1746 
Q 113.665625 352.7746 115.265625 352.7746 
z
" style="fill: #4c4c4c; opacity: 0.5; stroke: #4c4c4c; stroke-linejoin: miter"/>
    </g>
    <g id="patch_23">
     <path d="M 113.265625 350.7746 
L 359.054375 350.7746 
Q 360.654375 350.7746 360.654375 349.1746 
L 360.654375 326.4896 
Q 360.654375 324.8896 359.054375 324.8896 
L 113.265625 324.8896 
Q 111.665625 324.8896 111.665625 326.4896 
L 111.665625 349.1746 
Q 111.665625 350.7746 113.265625 350.7746 
z
" style="fill: #ffffff; stroke: #cccccc; stroke-linejoin: miter"/>
    </g>
    <g id="patch_24">
     <path d="M 114.865625 334.16835 
L 130.865625 334.16835 
L 130.865625 328.56835 
L 114.865625 328.56835 
z
" style="fill: #87ceeb; stroke: #87ceeb; stroke-linejoin: miter"/>
    </g>
    <g id="text_10">
     <!-- source -->
     <g transform="translate(137.265625 334.16835)scale(0.08 -0.08)">
      <use xlink:href="#DejaVuSans-73"/>
      <use xlink:href="#DejaVuSans-6f" x="52.099609"/>
      <use xlink:href="#DejaVuSans-75" x="113.28125"/>
      <use xlink:href="#DejaVuSans-72" x="176.660156"/>
      <use xlink:href="#DejaVuSans-63" x="215.523438"/>
      <use xlink:href="#DejaVuSans-65" x="270.503906"/>
     </g>
    </g>
    <g id="patch_25">
     <path d="M 114.865625 345.91085 
L 130.865625 345.91085 
L 130.865625 340.31085 
L 114.865625 340.31085 
z
" style="fill: #90ee90; stroke: #90ee90; stroke-linejoin: miter"/>
    </g>
    <g id="text_11">
     <!-- sink -->
     <g transform="translate(137.265625 345.91085)scale(0.08 -0.08)">
      <defs>
       <path id="DejaVuSans-6b" d="M 581 4863 
L 1159 4863 
L 1159 1991 
L 2875 3500 
L 3609 3500 
L 1753 1863 
L 3688 0 
L 2938 0 
L 1159 1709 
L 1159 0 
L 581 0 
L 581 4863 
z
" transform="scale(0.015625)"/>
      </defs>
      <use xlink:href="#DejaVuSans-73"/>
      <use xlink:href="#DejaVuSans-69" x="52.099609"/>
      <use xlink:href="#DejaVuSans-6e" x="79.882812"/>
      <use xlink:href="#DejaVuSans-6b" x="143.261719"/>
     </g>
    </g>
    <g id="patch_26">
     <path d="M 179.828125 334.16835 
L 195.828125 334.16835 
L 195.828125 328.56835 
L 179.828125 328.56835 
z
" style="fill: #f0e68c; stroke: #f0e68c; stroke-linejoin: miter"/>
    </g>
    <g id="text_12">
     <!-- node -->
     <g transform="translate(202.228125 334.16835)scale(0.08 -0.08)">
      <use xlink:href="#DejaVuSans-6e"/>
      <use xlink:href="#DejaVuSans-6f" x="63.378906"/>
      <use xlink:href="#DejaVuSans-64" x="124.560547"/>
      <use xlink:href="#DejaVuSans-65" x="188.037109"/>
     </g>
    </g>
    <g id="patch_27">
     <path d="M 179.828125 345.91085 
L 195.828125 345.91085 
L 195.828125 340.31085 
L 179.828125 340.31085 
z
" style="fill: #d3d3d3; stroke: #d3d3d3; stroke-linejoin: miter"/>
    </g>
    <g id="text_13">
     <!-- stale -->
     <g transform="translate(202.228125 345.91085)scale(0.08 -0.08)">
      <use xlink:href="#DejaVuSans-73"/>
      <use xlink:href="#DejaVuSans-74" x="52.099609"/>
      <use xlink:href="#DejaVuSans-61" x="91.308594"/>
      <use xlink:href="#DejaVuSans-6c" x="152.587891"/>
      <use xlink:href="#DejaVuSans-65" x="180.371094"/>
     </g>
    </g>
    <g id="line2d_1">
     <path d="M 238.194375 331.36835 
L 246.194375 331.36835 
L 254.194375 331.36835 
" style="fill: none; stroke: #000000; stroke-width: 1.5; stroke-linecap: square"/>
    </g>
    <g id="text_14">
     <!-- acyclic -->
     <g transform="translate(260.594375 334.16835)scale(0.08 -0.08)">
      <defs>
       <path id="DejaVuSans-79" d="M 2059 -325 
Q 1816 -950 1584 -1140 
Q 1353 -1331 966 -1331 
L 506 -1331 
L 506 -850 
L 844 -850 
Q 1081 -850 1212 -737 
Q 1344 -625 1503 -206 
L 1606 56 
L 191 3500 
L 800 3500 
L 1894 763 
L 2988 3500 
L 3597 3500 
L 2059 -325 
z
" transform="scale(0.015625)"/>
      </defs>
      <use xlink:href="#DejaVuSans-61"/>
      <use xlink:href="#DejaVuSans-63" x="61.279297"/>
      <use xlink:href="#DejaVuSans-79" x="116.259766"/>
      <use xlink:href="#DejaVuSans-63" x="175.439453"/>
      <use xlink:href="#DejaVuSans-6c" x="230.419922"/>
      <use xlink:href="#DejaVuSans-69" x="258.203125"/>
      <use xlink:href="#DejaVuSans-63" x="285.986328"/>
     </g>
    </g>
    <g id="line2d_2">
     <path d="M 238.194375 343.11085 
L 246.194375 343.11085 
L 254.194375 343.11085 
" style="fill: none; stroke: #ff0000; stroke-width: 1.5; stroke-linecap: square"/>
    </g>
    <g id="text_15">
     <!-- cyclic -->
     <g transform="translate(260.594375 345.91085)scale(0.08 -0.08)">
      <use xlink:href="#DejaVuSans-63"/>
      <use xlink:href="#DejaVuSans-79" x="54.980469"/>
      <use xlink:href="#DejaVuSans-63" x="114.160156"/>
      <use xlink:href="#DejaVuSans-6c" x="169.140625"/>
      <use xlink:href="#DejaVuSans-69" x="196.923828"/>
      <use xlink:href="#DejaVuSans-63" x="224.707031"/>
     </g>
    </g>
    <g id="line2d_3">
     <path d="M 303.873125 331.36835 
L 311.873125 331.36835 
L 319.873125 331.36835 
" style="fill: none; stroke-dasharray: 1.5,2.475; stroke-dashoffset: 0; stroke: #008000; stroke-width: 1.5"/>
    </g>
    <g id="text_16">
     <!-- skipped -->
     <g transform="translate(326.273125 334.16835)scale(0.08 -0.08)">
      <use xlink:href="#DejaVuSans-73"/>
      <use xlink:href="#DejaVuSans-6b" x="52.099609"/>
      <use xlink:href="#DejaVuSans-69" x="110.009766"/>
      <use xlink:href="#DejaVuSans-70" x="137.792969"/>
      <use xlink:href="#DejaVuSans-70" x="201.269531"/>
      <use xlink:href="#DejaVuSans-65" x="264.746094"/>
      <use xlink:href="#DejaVuSans-64" x="326.269531"/>
     </g>
    </g>
    <g id="line2d_4">
     <path d="M 303.873125 343.11085 
L 311.873125 343.11085 
L 319.873125 343.11085 
" style="fill: none; stroke: #d3d3d3; stroke-width: 1.5; stroke-linecap: square"/>
    </g>
    <g id="text_17">
     <!-- stale -->
     <g transform="translate(326.273125 345.91085)scale(0.08 -0.08)">
      <use xlink:href="#DejaVuSans-73"/>
      <use xlink:href="#DejaVuSans-74" x="52.099609"/>
      <use xlink:href="#DejaVuSans-61" x="91.308594"/>
      <use xlink:href="#DejaVuSans-6c" x="152.587891"/>
      <use xlink:href="#DejaVuSans-65" x="180.371094"/>
     </g>
    </g>
   </g>
  </g>
 </g>
 <defs>
  <clipPath id="pa3cafbe546">
   <rect x="57.6" y="41.472" width="357.12" height="266.112"/>
  </clipPath>
 </defs>
</svg>
